<?xml version="1.0" encoding="utf-8"?>
<!-- Generator: Adobe Illustrator 24.0.1, SVG Export Plug-In . SVG Version: 6.00 Build 0)  -->
<svg version="1.1" id="Слой_1" xmlns="http://www.w3.org/2000/svg" xmlns:xlink="http://www.w3.org/1999/xlink" x="0px" y="0px"
	 viewBox="0 0 777.8 288.8" style="enable-background:new 0 0 777.8 288.8;" xml:space="preserve">
<style type="text/css">
	.st0{fill:#1D1D1B;}
	.st1{fill:#A63CBF;}
	.st2{fill:#FFFFFF;}
</style>
<g>
	<path class="st0" d="M335.1,175.7v-68.5h7.9l27.7,41.9l27.8-41.9h7.8v68.5h-8.4v-53.4l-27.2,40.5l-27.2-40.5v53.4H335.1z"/>
	<path class="st0" d="M416,175.7l33.5-68.5h7.1l33.9,68.5h-9.2l-9.3-18.4h-37.8l-9.1,18.4H416z M438.1,149.3h30.1L453.1,119
		L438.1,149.3z"/>
	<path class="st0" d="M500.6,175.7v-68.5h39.3c6.7,0,11.9,1.7,15.8,5.1c3.8,3.4,5.7,8,5.7,14c0,5-1.5,9.2-4.5,12.7
		s-6.9,5.7-11.8,6.6l17.1,30.1h-9.4l-17.1-29.9h-26.5v29.9H500.6z M509.1,137.8h30.2c4.3,0,7.6-1,9.8-2.9c2.2-1.9,3.3-4.7,3.3-8.4
		c0-3.6-1.1-6.4-3.3-8.4c-2.2-2-5.3-3-9.3-3h-30.6V137.8z"/>
	<path class="st0" d="M576.8,175.7v-68.6h8.5v34.2l39.3-34.2h11.2L608,131.5l31.9,44.2h-10.3l-27.7-38.3l-16.6,14v24.4H576.8z"/>
	<path class="st0" d="M651.2,175.7v-68.5H705v7.9h-45.3v20.1h27.4v7.9h-27.4v24.7h48.1v7.9H651.2z"/>
	<path class="st0" d="M732.4,175.7v-60.6h-28.8v-7.9h66.2v7.9H741v60.6H732.4z"/>
</g>
<circle class="st1" cx="145" cy="144" r="140"/>
<g>
	<path class="st2" d="M71.8,175.7l33.5-68.5h7.1l33.9,68.5h-9.2l-9.3-18.4H90l-9.1,18.4H71.8z M93.9,149.3H124L108.9,119L93.9,149.3
		z"/>
	<path class="st2" d="M169.9,175.7l40-57.2h-50.2v-8h66.2l-45.9,65.2H169.9z"/>
</g>
</svg>
