<?xml version="1.0" encoding="utf-8"?>
<!-- Generator: Adobe Illustrator 23.0.2, SVG Export Plug-In . SVG Version: 6.00 Build 0)  -->
<svg version="1.1" id="Слой_1" xmlns="http://www.w3.org/2000/svg" xmlns:xlink="http://www.w3.org/1999/xlink" x="0px" y="0px"
	 viewBox="0 0 119 41" style="enable-background:new 0 0 119 41;" xml:space="preserve">
<style type="text/css">
	.st0{fill:#903EBA;}
	.st1{fill:#FFFFFF;}
</style>
<path class="st0" d="M20.1,0c11.1,0,20.1,9,20.1,20.1c0,11.1-9,20.1-20.1,20.1C9,40.2,0,31.2,0,20.1C0,9,9,0,20.1,0z"/>
<path class="st1" d="M2.7,26.5l7.4-15.1h1.6l7.5,15.1h-2l-2.1-4.1H6.7l-2,4.1H2.7z M7.6,20.7h6.6L10.9,14L7.6,20.7z"/>
<path class="st1" d="M24.4,26.5l8.8-12.6H22.1v-1.8h14.6L26.6,26.5H24.4z"/>
<path d="M47,26.5V13.4h1.7l5.4,7.7l5.4-7.7h1.7v13.1h-2v-9.4l-5,7.3l-5-7.3v9.4H47z"/>
<path d="M63.1,26.5l6.6-13.1H71l6.7,13.1h-2.2l-1.7-3.3h-6.9l-1.7,3.3H63.1z M67.8,21.5h5.1l-2.5-5L67.8,21.5z"/>
<path d="M81.8,20.8v5.7h-2.1V13.5h9c1.3,0,2.4,0.3,3.1,1c0.8,0.6,1.1,1.5,1.1,2.7c0,0.9-0.3,1.7-0.9,2.4c-0.6,0.7-1.4,1.1-2.3,1.2
	l3.6,5.7h-2.2l-3.7-5.7H81.8z M81.8,18.9h7c0.7,0,1.2-0.2,1.6-0.5c0.4-0.3,0.6-0.7,0.6-1.3c0-0.6-0.2-1-0.6-1.3
	c-0.4-0.3-0.9-0.5-1.6-0.5h-7V18.9z"/>
<path d="M96.7,26.5V13.5h2.1v5.8l6.9-5.8h2.7l-5.5,4.6l6.3,8.4h-2.3l-5.5-7.2l-2.7,2.3v4.9H96.7z"/>
<path d="M111.6,26.5V13.4h12.3v1.9h-10.2v3.3h6.7v1.9h-6.7v4.1h10.8v1.9H111.6z"/>
<path d="M132.9,26.5V15.3h-5.5v-1.8h13.1v1.8H135v11.3H132.9z"/>
</svg>
