<?xml version="1.0" encoding="utf-8"?><svg xmlns="http://www.w3.org/2000/svg" xmlns:xlink="http://www.w3.org/1999/xlink"><symbol viewBox="0 0 512 512" id="add" xmlns="http://www.w3.org/2000/svg"><path d="M256 0C114.8 0 0 114.8 0 256s114.8 256 256 256 256-114.8 256-256S397.2 0 256 0zm0 480C132.5 480 32 379.5 32 256S132.5 32 256 32s224 100.5 224 224-100.5 224-224 224z"/><path d="M272 128h-32v112H128v32h112v112h32V272h112v-32H272V128z"/></symbol><symbol viewBox="0 0 344.96 344.96" id="check" xmlns="http://www.w3.org/2000/svg"><g data-name="Слой 2"><path d="M321.85 86.24l-40-23.11-23.1-40H212.5L172.48 0l-40 23.11H86.24l-23.11 40-40 23.1v46.21L0 172.48l23.11 40v46.21l40 23.11 23.11 40h46.21l40 23.1 40-23.11h46.21l23.11-40 40-23.11V212.5l23.11-40-23.11-40V86.24zM156.91 243.07a16.79 16.79 0 01-23.34 0l-50.45-50.44a16.19 16.19 0 010-22.89l13.35-13.35a16.19 16.19 0 0122.89 0l25.87 25.87 80.34-80.35a16.19 16.19 0 0122.89 0l13.35 13.35a16.19 16.19 0 010 22.89z" data-name="Capa 1"/></g></symbol><symbol viewBox="0 0 491.996 491.996" id="download" xmlns="http://www.w3.org/2000/svg"><path d="M484.132 124.986l-16.116-16.228c-5.072-5.068-11.82-7.86-19.032-7.86-7.208 0-13.964 2.792-19.036 7.86l-183.84 183.848L62.056 108.554c-5.064-5.068-11.82-7.856-19.028-7.856s-13.968 2.788-19.036 7.856l-16.12 16.128c-10.496 10.488-10.496 27.572 0 38.06l219.136 219.924c5.064 5.064 11.812 8.632 19.084 8.632h.084c7.212 0 13.96-3.572 19.024-8.632l218.932-219.328c5.072-5.064 7.856-12.016 7.864-19.224 0-7.212-2.792-14.068-7.864-19.128z"/></symbol><symbol viewBox="0 0 512 512" id="email" xmlns="http://www.w3.org/2000/svg"><path d="M467 61H45C20.218 61 0 81.196 0 106v300c0 24.72 20.128 45 45 45h422c24.72 0 45-20.128 45-45V106c0-24.72-20.128-45-45-45zm-6.214 30L256.954 294.833 51.359 91h409.427zM30 399.788V112.069l144.479 143.24L30 399.788zM51.213 421l144.57-144.57 50.657 50.222c5.864 5.814 15.327 5.795 21.167-.046L317 277.213 460.787 421H51.213zM482 399.787L338.213 256 482 112.212v287.575z"/></symbol><symbol viewBox="0 0 26.349 26.35" id="loader" xmlns="http://www.w3.org/2000/svg"><circle cx="13.792" cy="3.082" r="3.082"/><circle cx="13.792" cy="24.501" r="1.849"/><circle cx="6.219" cy="6.218" r="2.774"/><circle cx="21.365" cy="21.363" r="1.541"/><circle cx="3.082" cy="13.792" r="2.465"/><circle cx="24.501" cy="13.791" r="1.232"/><path d="M4.694 19.84a2.155 2.155 0 000 3.05 2.155 2.155 0 003.05 0 2.155 2.155 0 000-3.05 2.146 2.146 0 00-3.05 0z"/><circle cx="21.364" cy="6.218" r=".924"/></symbol><symbol viewBox="0 0 512.005 512.005" id="search" xmlns="http://www.w3.org/2000/svg"><path d="M505.749 475.587l-145.6-145.6c28.203-34.837 45.184-79.104 45.184-127.317C405.333 90.926 314.41.003 202.666.003S0 90.925 0 202.669s90.923 202.667 202.667 202.667c48.213 0 92.48-16.981 127.317-45.184l145.6 145.6c4.16 4.16 9.621 6.251 15.083 6.251s10.923-2.091 15.083-6.251c8.341-8.341 8.341-21.824-.001-30.165zM202.667 362.669c-88.235 0-160-71.765-160-160s71.765-160 160-160 160 71.765 160 160-71.766 160-160 160z"/></symbol><symbol viewBox="0 0 512 512" id="telephone" xmlns="http://www.w3.org/2000/svg"><path d="M498.8 377.6L435.2 314c-17.5-17.5-46.1-17.5-63.6 0l-28.9 28.9c-13.3 13.3-34.9 13.3-48.2 0L169 217.4c-13.3-13.3-13.3-34.9 0-48.2l28.9-28.9c17.5-17.5 17.7-45.9 0-63.7l-63.6-63.4c-17.5-17.5-46.1-17.5-63.6 0-13.1 13-17.3 17.2-23.2 23-63.3 63.3-63.3 166.2 0 229.5l198.7 198.8c63.4 63.4 166.1 63.4 229.5 0l23.1-23.1c17.6-17.7 17.6-46.2 0-63.8zM91.8 34.4c5.8-5.8 15.4-5.9 21.2 0l63.6 63.4c5.9 5.9 5.9 15.4 0 21.2L166 129.6 81.3 44.8l10.5-10.4zm175.6 408.8L68.7 244.4c-49-49-51.6-125.8-8.3-178L145 151c-22.2 25.2-21.3 63.6 2.8 87.7l125.4 125.5c24.1 24.1 62.4 25 87.7 2.8l84.6 84.6c-52.1 43.2-128.8 40.9-178.1-8.4zm210.2-23.1L467 430.7l-84.9-84.9 10.6-10.6c5.9-5.8 15.4-5.9 21.2 0l63.6 63.6c6 5.9 6 15.4.1 21.3z"/></symbol><symbol viewBox="0 0 512 512" id="user" xmlns="http://www.w3.org/2000/svg"><path d="M256 0C114.8 0 0 114.8 0 256s114.8 256 256 256 256-114.8 256-256S397.2 0 256 0zm0 32c123.5 0 224 100.5 224 224 0 51.5-17.6 98.8-46.9 136.6-112.3-53.1-241.9-53.1-354.2 0C49.6 354.8 32 307.5 32 256 32 132.5 132.5 32 256 32zM101.3 417.7c98.7-43.7 210.6-43.7 309.3 0C370.4 456.2 316 480 256 480s-114.4-23.8-154.7-62.3z"/><path d="M256 320c52.9 0 96-43.1 96-96s-43.1-96-96-96-96 43.1-96 96 43.1 96 96 96zm0-160c35.3 0 64 28.7 64 64s-28.7 64-64 64-64-28.7-64-64 28.7-64 64-64z"/></symbol><symbol viewBox="0 0 512 512" id="youtube" xmlns="http://www.w3.org/2000/svg"><path d="M334.8 233l-113.1-61.9c-6.5-3.6-14.2-3.4-20.6.4-6.4 3.8-10.2 10.5-10.2 17.9V312c0 7.4 3.8 14 10.1 17.8 3.3 2 7 3 10.7 3 3.4 0 6.7-.8 9.8-2.5l113.1-60.8c6.7-3.6 10.9-10.6 10.9-18.2.1-7.6-4-14.6-10.7-18.3zm-113.9 63.6v-91.7l84.5 46.3-84.5 45.4z"/><path d="M508.2 153.5v-.2c-.4-4.1-4.8-40.8-22.6-59.4-20.6-22-43.9-24.6-55.1-25.9-.9-.1-1.8-.2-2.5-.3l-.9-.1c-67.8-4.9-170-5.6-171-5.6h-.2c-1 0-103.2.7-171.5 5.6l-.9.1c-.7.1-1.5.2-2.4.3-11.1 1.3-34.2 3.9-54.9 26.7C9.2 113.1 4.3 149 3.8 153l-.1.5c-.1 1.7-3.7 42.6-3.7 83.6v38.3c0 41 3.6 81.8 3.8 83.5v.3c.4 4.1 4.7 40 22.5 58.7 19.4 21.2 43.9 24 57 25.5 2.1.2 3.9.4 5.1.7l1.2.2c39.1 3.7 161.6 5.6 166.8 5.6h.4c1 0 103.2-.7 170.9-5.6l.9-.1c.9-.1 1.8-.2 2.9-.3 11-1.2 34-3.6 54.4-26 17-18.4 21.9-54.3 22.4-58.3l.1-.5c.2-1.7 3.8-42.5 3.8-83.5v-38.3c-.2-41.2-3.8-82.1-4-83.8zM482 275.4c0 37.9-3.3 77-3.6 80.6-1.3 9.9-6.4 32.6-14.7 41.6-12.8 14-25.8 15.4-35.4 16.4-1.2.1-2.2.2-3.2.4-65.5 4.7-163.8 5.5-168.4 5.5-5.1-.1-125.8-1.9-163.7-5.4-1.9-.3-4-.6-6.3-.8-11.2-1.3-26.6-3-38.4-16l-.3-.3c-8.1-8.5-13.2-29.7-14.4-41.1-.2-2.7-3.6-42.2-3.6-80.7v-38.3c0-37.9 3.3-76.9 3.6-80.6 1.5-11.6 6.8-33 14.7-41.6C61.4 100.6 75.3 99 84.5 98c.9-.1 1.7-.2 2.4-.3 66.4-4.8 165.5-5.5 169-5.5 3.6 0 102.6.7 168.4 5.5.8.1 1.7.2 2.6.3 9.4 1.1 23.7 2.7 36.7 16.6l.1.1c8.1 8.5 13.2 30.1 14.4 41.8.2 2.6 3.6 42.2 3.6 80.7v38.2z"/></symbol></svg>